<svg xmlns="http://www.w3.org/2000/svg" version="1.1" xmlns:xlink="http://www.w3.org/1999/xlink" xmlns:svgjs="http://svgjs.dev/svgjs" width="1500" height="234" viewBox="0 0 1500 234"><g transform="matrix(1,0,0,1,-0.9090909090909918,-0.5949140743531984)"><svg viewBox="0 0 396 62" data-background-color="#ffffff" preserveAspectRatio="xMidYMid meet" height="234" width="1500" xmlns="http://www.w3.org/2000/svg" xmlns:xlink="http://www.w3.org/1999/xlink"><g id="tight-bounds" transform="matrix(1,0,0,1,0.2400000000000091,0.15762680602520618)"><svg viewBox="0 0 395.52 61.68474638794958" height="61.68474638794958" width="395.52"><g><svg viewBox="0 0 395.52 61.68474638794958" height="61.68474638794958" width="395.52"><g><svg viewBox="0 0 395.52 61.68474638794958" height="61.68474638794958" width="395.52"><g id="textblocktransform"><svg viewBox="0 0 395.52 61.68474638794958" height="61.68474638794958" width="395.52" id="textblock"><g><svg viewBox="0 0 395.52 61.68474638794958" height="61.68474638794958" width="395.52"><g transform="matrix(1,0,0,1,0,0)"><svg width="395.52" viewBox="1.49 -36.21 238.23999999999998 37.160000000000004" height="61.68474638794958" data-palette-color="#30c48d"><path d="M25.24-31.35L25.24-31.35Q24.71-31.35 24.11-31.18 23.51-31.01 22.92-30.52 22.34-30.03 21.79-29.16 21.24-28.3 20.84-26.88 20.43-25.46 20.19-23.45 19.95-21.44 19.95-18.65L19.95-18.65Q19.95-15.89 20.19-13.84 20.43-11.79 20.84-10.33 21.24-8.86 21.79-7.92 22.34-6.98 22.92-6.45 23.51-5.91 24.11-5.7 24.71-5.49 25.24-5.49L25.24-5.49Q25.98-5.49 26.61-5.81L26.61-5.81 26.61-15.16Q26.61-15.55 26.78-15.93 26.95-16.31 27.59-16.31L27.59-16.31 30.15-16.31Q30.37-16.31 30.59-16.28 30.81-16.26 30.98-16.15 31.15-16.04 31.25-15.81 31.35-15.58 31.35-15.16L31.35-15.16 31.35-1.15Q31.35-0.73 31.25-0.5 31.15-0.27 30.98-0.16 30.81-0.05 30.59-0.02 30.37 0 30.15 0L30.15 0 27.59 0Q27.27 0 27.09-0.1 26.9-0.2 26.79-0.37 26.68-0.54 26.65-0.74 26.61-0.95 26.61-1.15L26.61-1.15 26.61-1.86Q25.83-1.29 24.88-0.78 23.93-0.27 22.79 0.12 21.66 0.51 20.34 0.73 19.02 0.95 17.5 0.95L17.5 0.95Q15.72 0.95 13.84 0.63 11.96 0.32 10.19-0.5 8.42-1.32 6.84-2.73 5.25-4.15 4.06-6.32 2.88-8.5 2.19-11.54 1.49-14.58 1.49-18.65L1.49-18.65Q1.49-22.12 2.19-24.77 2.88-27.42 4.08-29.37 5.27-31.32 6.87-32.64 8.47-33.96 10.28-34.75 12.08-35.55 14-35.88 15.92-36.21 17.75-36.21L17.75-36.21Q19.75-36.21 21.56-35.89 23.36-35.57 24.87-35.08 26.37-34.59 27.54-33.98 28.71-33.37 29.47-32.79L29.47-32.79Q29.54-32.71 29.64-32.63 29.74-32.54 29.74-32.42L29.74-32.42Q29.74-32.32 29.66-32.18L29.66-32.18 28.61-30.52Q28.47-30.3 28.27-30.3L28.27-30.3Q28.13-30.3 27.87-30.46 27.61-30.62 27.22-30.82 26.83-31.03 26.34-31.19 25.85-31.35 25.24-31.35ZM15.82-18.65L15.82-18.65Q15.82-15.84 16.1-13.73 16.38-11.62 16.88-10.07 17.38-8.52 18.05-7.48 18.73-6.45 19.49-5.77 20.26-5.1 21.08-4.74 21.9-4.37 22.71-4.17L22.71-4.17Q22.44-4.32 21.97-4.65 21.51-4.98 20.96-5.62 20.41-6.25 19.86-7.28 19.31-8.3 18.86-9.85 18.41-11.4 18.13-13.56 17.85-15.72 17.85-18.65L17.85-18.65Q17.85-21.56 18.13-23.69 18.41-25.83 18.86-27.33 19.31-28.83 19.86-29.79 20.41-30.74 20.96-31.32 21.51-31.91 21.97-32.19 22.44-32.47 22.71-32.64L22.71-32.64Q21.9-32.45 21.08-32.12 20.26-31.79 19.49-31.16 18.73-30.54 18.05-29.57 17.38-28.59 16.88-27.1 16.38-25.61 16.1-23.54 15.82-21.46 15.82-18.65ZM50.85 0.95L50.85 0.95Q48.9 0.95 46.93 0.61 44.97 0.27 43.16-0.56 41.35-1.39 39.79-2.77 38.23-4.15 37.07-6.21 35.91-8.28 35.25-11.1 34.59-13.92 34.59-17.65L34.59-17.65Q34.59-21.36 35.25-24.19 35.91-27.03 37.07-29.09 38.23-31.15 39.79-32.52 41.35-33.89 43.16-34.7 44.97-35.52 46.93-35.86 48.9-36.21 50.85-36.21L50.85-36.21Q52.81-36.21 54.78-35.86 56.76-35.52 58.57-34.7 60.37-33.89 61.94-32.52 63.5-31.15 64.65-29.09 65.79-27.03 66.45-24.19 67.11-21.36 67.11-17.65L67.11-17.65Q67.11-13.94 66.45-11.11 65.79-8.28 64.65-6.21 63.5-4.15 61.94-2.77 60.37-1.39 58.57-0.56 56.76 0.27 54.78 0.61 52.81 0.95 50.85 0.95ZM53.05-17.65L53.05-17.65Q53.05-14.6 53.5-12.55 53.95-10.5 54.71-9.25 55.47-8.01 56.41-7.48 57.35-6.96 58.35-6.96L58.35-6.96Q59.35-6.96 60.3-7.48 61.25-8.01 62-9.25 62.74-10.5 63.19-12.55 63.64-14.6 63.64-17.65L63.64-17.65Q63.64-20.7 63.19-22.75 62.74-24.8 62-26.05 61.25-27.29 60.3-27.82 59.35-28.34 58.35-28.34L58.35-28.34Q57.35-28.34 56.41-27.82 55.47-27.29 54.71-26.05 53.95-24.8 53.5-22.75 53.05-20.7 53.05-17.65ZM50.97-17.65L50.97-17.65Q50.97-20.7 51.47-22.92 51.98-25.15 52.76-26.61 53.54-28.08 54.53-28.85 55.52-29.61 56.52-29.81L56.52-29.81Q55.08-29.74 53.71-29.05 52.34-28.37 51.28-26.93 50.22-25.49 49.58-23.21 48.95-20.92 48.95-17.65L48.95-17.65Q48.95-14.38 49.58-12.1 50.22-9.81 51.28-8.37 52.34-6.93 53.71-6.25 55.08-5.57 56.52-5.49L56.52-5.49Q55.52-5.66 54.53-6.45 53.54-7.23 52.76-8.69 51.98-10.16 51.47-12.38 50.97-14.6 50.97-17.65ZM97.94-33.91L97.94-12.62Q97.94-9.84 97.41-7.75 96.87-5.66 95.92-4.15 94.97-2.64 93.67-1.66 92.38-0.68 90.85-0.1 89.33 0.49 87.63 0.72 85.93 0.95 84.2 0.95L84.2 0.95Q82.54 0.95 80.89 0.74 79.24 0.54 77.77 0 76.29-0.54 75.02-1.49 73.75-2.44 72.82-3.96 71.89-5.47 71.37-7.59 70.84-9.72 70.84-12.62L70.84-12.62 70.84-31.64Q70.84-32.5 70.99-33.13 71.14-33.76 71.55-34.19 71.97-34.62 72.7-34.84 73.43-35.06 74.6-35.06L74.6-35.06 85.49-35.06Q86.91-35.06 87.65-34.64 88.4-34.23 88.7-33.61 89.01-32.98 89.03-32.29 89.06-31.59 89.06-31.01L89.06-31.01 89.06-3.64Q91.25-4.08 92.23-5.66 93.21-7.25 93.21-10.38L93.21-10.38 93.21-33.91Q93.21-34.33 93.39-34.69 93.57-35.06 94.21-35.06L94.21-35.06 96.75-35.06Q96.97-35.06 97.19-35.03 97.41-35.01 97.58-34.9 97.75-34.79 97.85-34.56 97.94-34.33 97.94-33.91L97.94-33.91ZM86.98-3.37L86.98-31.45Q86.98-31.98 86.91-32.3 86.84-32.62 86.62-32.78 86.4-32.93 86.03-32.97 85.66-33.01 85.08-33.01L85.08-33.01 85.08-3.37 86.98-3.37ZM108.34-3.39L108.34-31.49Q106.76-31.15 105.41-30.88L105.41-30.88Q104.83-30.76 104.25-30.66 103.68-30.57 103.17-30.48 102.65-30.4 102.25-30.35 101.85-30.3 101.65-30.3L101.65-30.3Q101.24-30.3 100.96-30.46 100.68-30.62 100.68-31.1L100.68-31.1 100.68-33.84Q100.68-34.3 101.07-34.68 101.46-35.06 102.29-35.06L102.29-35.06 132.59-35.06Q133.42-35.06 133.81-34.68 134.2-34.3 134.2-33.84L134.2-33.84 134.2-31.1Q134.2-30.62 133.92-30.46 133.64-30.3 133.22-30.3L133.22-30.3Q133-30.3 132.61-30.35 132.22-30.4 131.71-30.48 131.19-30.57 130.62-30.66 130.05-30.76 129.46-30.88L129.46-30.88Q128.12-31.15 126.53-31.49L126.53-31.49 126.53-3.34Q126.53-2.51 126.38-1.89 126.24-1.27 125.83-0.84 125.43-0.42 124.72-0.21 124.02 0 122.92 0L122.92 0 112.03 0Q110.88 0 110.16-0.22 109.44-0.44 109.04-0.85 108.64-1.27 108.49-1.9 108.34-2.54 108.34-3.39L108.34-3.39ZM124.46-3.61L124.46-32.01 122.55-32.42 122.55-2.05Q123.14-2.05 123.5-2.09 123.87-2.12 124.09-2.28 124.31-2.44 124.38-2.75 124.46-3.05 124.46-3.61L124.46-3.61ZM159.29-1.15L159.29-12.79 155.14-12.79 155.14-3.96Q155.14-3.39 155.04-2.71 154.95-2.03 154.56-1.43 154.16-0.83 153.36-0.42 152.55 0 151.14 0L151.14 0 140.69 0Q139.52 0 138.78-0.22 138.05-0.44 137.64-0.85 137.22-1.27 137.07-1.9 136.93-2.54 136.93-3.39L136.93-3.39 136.93-31.64Q136.93-32.5 137.07-33.13 137.22-33.76 137.64-34.19 138.05-34.62 138.78-34.84 139.52-35.06 140.69-35.06L140.69-35.06 151.58-35.06Q152.99-35.06 153.74-34.64 154.48-34.23 154.79-33.61 155.09-32.98 155.12-32.29 155.14-31.59 155.14-31.01L155.14-31.01 155.14-16.31 159.29-16.31 159.29-33.91Q159.29-34.33 159.51-34.69 159.73-35.06 160.37-35.06L160.37-35.06 162.91-35.06Q163.12-35.06 163.33-35.03 163.54-35.01 163.7-34.9 163.86-34.79 163.94-34.56 164.03-34.33 164.03-33.91L164.03-33.91 164.03-16.31 166.37-16.31Q166.88-16.31 166.88-15.8L166.88-15.8 166.88-13.33Q166.88-12.79 166.37-12.79L166.37-12.79 164.03-12.79 164.03-1.15Q164.03-0.73 163.94-0.5 163.86-0.27 163.7-0.16 163.54-0.05 163.33-0.02 163.12 0 162.91 0L162.91 0 160.29 0Q159.66 0 159.47-0.37 159.29-0.73 159.29-1.15L159.29-1.15ZM153.07-3.61L153.07-31.45Q153.07-31.98 152.99-32.3 152.92-32.62 152.7-32.78 152.48-32.93 152.11-32.97 151.75-33.01 151.16-33.01L151.16-33.01 151.16-2.05Q151.75-2.05 152.11-2.09 152.48-2.12 152.7-2.28 152.92-2.44 152.99-2.75 153.07-3.05 153.07-3.61L153.07-3.61ZM180.7-35.06L184.34-35.06Q184.78-35.06 185.09-34.95 185.41-34.84 185.67-34.57 185.93-34.3 186.14-33.86 186.36-33.42 186.61-32.79L186.61-32.79 197.81-2.86Q197.94-2.51 197.99-2.25 198.03-1.98 198.03-1.71L198.03-1.71Q198.03-0.83 197.51-0.42 196.98 0 196.4 0L196.4 0 182.56 0Q181.92 0 181.49-0.16 181.07-0.32 180.77-0.54 180.48-0.76 180.32-1 180.16-1.25 180.11-1.44L180.11-1.44 179.85-2.29 172.99-2.29 172.81-1.56Q172.74-1.2 172.64-0.92 172.55-0.63 172.4-0.43 172.25-0.22 172-0.11 171.74 0 171.33 0L171.33 0 168.81 0Q168.03 0 168.03-0.61L168.03-0.61Q168.03-0.83 168.11-1.14 168.2-1.44 168.35-1.86L168.35-1.86 178.55-32.74Q178.92-33.89 179.38-34.45 179.85-35.01 180.7-35.06L180.7-35.06ZM176.31-14.84L173.74-5.3 179.02-5.3 176.31-14.84ZM195.59-2.91L184.61-32.23Q184.41-32.74 184.13-32.87 183.85-33.01 183.17-33.01L183.17-33.01 182.31-33.01 193.86-2.05 195.03-2.05Q195.47-2.05 195.63-2.23 195.79-2.42 195.59-2.91L195.59-2.91ZM221.52-3.39L221.52-15.45 215.78-4.88Q215.41-4.2 214.9-3.75 214.39-3.3 213.49-3.3L213.49-3.3Q212.66-3.3 212.11-3.76 211.56-4.22 211.19-4.86L211.19-4.86 205.14-15.26Q205.28-11.96 205.4-9.18L205.4-9.18Q205.45-7.98 205.5-6.79 205.55-5.59 205.6-4.57 205.65-3.54 205.69-2.75 205.72-1.95 205.75-1.59L205.75-1.59Q205.77-1.22 205.73-0.93 205.7-0.63 205.55-0.43 205.4-0.22 205.14-0.11 204.87 0 204.4 0L204.4 0 201.72 0Q201.28 0 200.9-0.28 200.52-0.56 200.52-1.39L200.52-1.39 200.52-32.45Q200.52-32.91 200.66-33.37 200.79-33.84 201.12-34.22 201.45-34.59 201.99-34.83 202.52-35.06 203.31-35.06L203.31-35.06 211.17-35.06Q212.12-35.06 212.8-34.73 213.49-34.4 213.97-33.64L213.97-33.64 220.54-23.22 224.94-31.64Q225.33-32.4 225.69-33.02 226.06-33.64 226.56-34.09 227.06-34.55 227.8-34.8 228.55-35.06 229.72-35.06L229.72-35.06 236.22-35.06Q237.14-35.06 237.81-34.81 238.49-34.57 238.91-34.16 239.34-33.74 239.54-33.18 239.73-32.62 239.73-31.96L239.73-31.96 239.73-3.39Q239.73-2.64 239.61-2.01 239.49-1.39 239.11-0.94 238.73-0.49 238.03-0.24 237.34 0 236.22 0L236.22 0 224.94 0Q223.94 0 223.28-0.22 222.62-0.44 222.23-0.85 221.84-1.27 221.68-1.9 221.52-2.54 221.52-3.39L221.52-3.39ZM219.35-20.92L212.17-32.32Q211.87-32.81 211.52-32.91 211.17-33.01 210.78-33.01L210.78-33.01 209.56-33.01 218.34-19.04 219.35-20.92ZM237.66-3.61L237.66-31.45Q237.66-31.98 237.58-32.3 237.51-32.62 237.29-32.78 237.07-32.93 236.7-32.97 236.34-33.01 235.75-33.01L235.75-33.01 235.75-2.05Q236.34-2.05 236.7-2.09 237.07-2.12 237.29-2.28 237.51-2.44 237.58-2.75 237.66-3.05 237.66-3.61L237.66-3.61Z" opacity="1" transform="matrix(1,0,0,1,0,0)" fill="#30c48d" class="wordmark-text-0" data-fill-palette-color="primary" id="text-0"></path></svg></g></svg></g></svg></g></svg></g><g></g></svg></g><defs></defs></svg><rect width="395.52" height="61.68474638794958" fill="none" stroke="none" visibility="hidden"></rect></g></svg></g></svg>