<svg xmlns="http://www.w3.org/2000/svg" version="1.1" xmlns:xlink="http://www.w3.org/1999/xlink" xmlns:svgjs="http://svgjs.dev/svgjs" width="1500" height="299" viewBox="0 0 1500 299"><g transform="matrix(1,0,0,1,-0.9090909090911055,-0.6466754528345007)"><svg viewBox="0 0 396 79" data-background-color="#000000" preserveAspectRatio="xMidYMid meet" height="299" width="1500" xmlns="http://www.w3.org/2000/svg" xmlns:xlink="http://www.w3.org/1999/xlink"><g id="tight-bounds" transform="matrix(1,0,0,1,0.24000000000003752,0.1708607383743299)"><svg viewBox="0 0 395.5199999999999 78.65827852325134" height="78.65827852325134" width="395.5199999999999"><g><svg viewBox="0 0 567.4841213698568 112.8573120859445" height="78.65827852325134" width="395.5199999999999"><g></g><g transform="matrix(1,0,0,1,0,15.597501163831694)"><svg viewBox="0 0 395.52 81.66230975828111" height="81.66230975828111" width="395.52"><g id="textblocktransform"><svg viewBox="0 0 395.52 81.66230975828111" height="81.66230975828111" width="395.52" id="textblock"><g><svg viewBox="0 0 395.52 81.66230975828111" height="81.66230975828111" width="395.52"><g transform="matrix(1,0,0,1,0,0)"><svg width="395.52" viewBox="1.71 -37.87 218.15 45.05" height="81.66230975828111" data-palette-color="url(#74312f50-57fd-42f7-b44a-3add8d43ca0e)"><g class="wordmark-text-0" data-fill-palette-color="primary" id="text-0"></g></svg></g></svg></g></svg></g></svg></g><g transform="matrix(1,0,0,1,441.4414142464974,0)"><svg viewBox="0 0 126.04270712335942 112.8573120859445" height="112.8573120859445" width="126.04270712335942"><g><svg xmlns="http://www.w3.org/2000/svg" xmlns:xlink="http://www.w3.org/1999/xlink" version="1.1" x="0" y="0" viewBox="5.421734962878724 14.522457300345891 89.54153007424256 80.17454269965411" enable-background="new 0 0 100 100" xml:space="preserve" height="112.8573120859445" width="126.04270712335942" class="icon-icon-0" data-fill-palette-color="accent" id="icon-0"></svg></g></svg></g></svg></g><defs></defs><mask id="2f8636e1-1271-41c6-bd88-6d647c8d46cf"><g id="SvgjsG1005"><svg viewBox="0 0 395.5199999999999 78.65827852325134" height="78.65827852325134" width="395.5199999999999"><g><svg viewBox="0 0 567.4841213698568 112.8573120859445" height="78.65827852325134" width="395.5199999999999"><g><rect width="7.364391369505461" height="82.07062130707251" x="414.79851143849595" y="15.393345389435993" fill="white" opacity="1" stroke-width="0" stroke="transparent" fill-opacity="1" class="rect-yte-0" rx="1%" id="SvgjsRect1004" data-palette-color="url(#74312f50-57fd-42f7-b44a-3add8d43ca0e)"></rect></g><g transform="matrix(1,0,0,1,0,15.597501163831694)"><svg viewBox="0 0 395.52 81.66230975828111" height="81.66230975828111" width="395.52"><g id="SvgjsG1003"><svg viewBox="0 0 395.52 81.66230975828111" height="81.66230975828111" width="395.52" id="SvgjsSvg1002"><g><svg viewBox="0 0 395.52 81.66230975828111" height="81.66230975828111" width="395.52"><g transform="matrix(1,0,0,1,0,0)"><svg width="395.52" viewBox="1.71 -37.87 218.15 45.05" height="81.66230975828111" data-palette-color="url(#74312f50-57fd-42f7-b44a-3add8d43ca0e)"><g class="wordmark-text-0" data-fill-palette-color="primary" id="SvgjsG1001"><path d="M22.66-16.63L22.66-16.63 23.17-14.7 22.07-14.7Q14.82-14.7 14.72-16.28L14.72-16.28 14.53-15.94Q14.67-16.31 14.67-16.82 14.67-17.33 14.26-18.12L14.26-18.12 14.72-18.65 14.26-18.65 13.82-19.26 13.82-20.02 13.35-19.8Q13.23-20.95 12.11-20.95 10.99-20.95 10.64-20.29 10.3-19.63 10.3-18.19L10.3-18.19 10.21-18.26Q10.38-17.92 10.38-17.43L10.38-17.43 10.3-16.5Q10.25-16.28 10.05-15.73 9.84-15.19 9.84-14.7L9.84-14.7 10.3-14.11 9.84-13.04Q10.23-12.16 10.47-10.18 10.72-8.2 11.18-7.35L11.18-7.35 10.72-7.35 10.72-6.84Q11.52-6.84 11.52-6.23L11.52-6.23 11.43-6.23Q11.18-6.23 11.18-5.64L11.18-5.64 12.45-4.15 13.35-4.52 13.35-4.05 13.82-4Q13.82-4.64 15.28-5.22L15.28-5.22Q15.87-5.44 16.04-5.64L16.04-5.64 15.55-6.23Q16.04-7.5 16.04-7.79L16.04-7.79 16.04-7.91 15.55-7.91Q14.26-7.91 13.35-6.84L13.35-6.84Q13.35-8.03 13.15-10.44 12.94-12.84 12.94-14.11L12.94-14.11Q13.89-12.79 15.7-12.79L15.7-12.79 18.73-13.04Q21.68-13.04 22.71-11.89L22.71-11.89 22.71-9.28Q22.71-4.03 21.73-1.51L21.73-1.51Q20.78 0.88 18.77 1.59L18.77 1.59Q18.65 1.81 18.36 1.88L18.36 1.88Q17.77 2.03 17.77 3.37L17.77 3.37Q17.77 3.74 16.89 3.93L16.89 3.93 16.46 3.3 16.89 3.37 15.99 1.54Q15.14 1.9 14.87 2.31 14.6 2.71 14.6 3.09 14.6 3.47 14.64 3.65 14.67 3.83 14.67 3.98L14.67 3.98Q14.67 3.37 13.82 3.37L13.82 3.37Q13.45 3.37 13.31 2.83L13.31 2.83 13.45 2.61Q13.45 2.22 12.93 1.42 12.4 0.61 12.04 0.04 11.67-0.54 11.62-0.59L11.62-0.59Q11.67-0.32 11.67 0.72 11.67 1.76 11.33 3.52L11.33 3.52Q10.94 3.17 10.62 2.23 10.3 1.29 10.3 0.54L10.3 0.54 9.84 1.12 9.4 1.12 9.5 1.17 8.96 2.22Q8.96 2.51 9.66 3.09 10.35 3.66 10.35 4.08 10.35 4.49 10.23 4.79 10.11 5.08 9.74 5.05L9.74 5.05 8.96 5 8.52 1.66Q8.01 1.66 7.59 1.21 7.18 0.76 6.99 0.54 6.81 0.32 6.53-0.1 6.25-0.51 6.18-0.59L6.18-0.59 6.05-0.51Q3.69-6.1 3.69-11.28L3.69-11.28Q3.69-12.52 2.7-18.64 1.71-24.76 1.71-28L1.71-28Q1.71-29.3 2.27-30L2.27-30 2.39-29.71 2.49-29.83 2.27-31.69Q2.69-32.69 3.69-33.91L3.69-33.91 4.74-33.37 5.05-33.91 4.74-34.52Q5.79-34.52 7.67-35.63 9.55-36.74 10.72-36.74L10.72-36.74 10.72-36.23Q10.96-36.23 11.11-36.49 11.25-36.74 11.62-36.74L11.62-36.74 11.18-35.64Q12.04-36.4 12.04-36.74L12.04-36.74Q14.65-36.74 17.68-35.33 20.7-33.91 22.71-31.69L22.71-31.69 22.14-31.69 22.71-30.44 22.71-30.54Q23.95-29.13 23.95-26.03L23.95-26.03Q23.95-24.95 23.3-21.8 22.66-18.65 22.66-16.63ZM11.18-5.64L11.18-5.64 11.62-6.23Q11.62-5.64 11.18-5.64ZM11.62-6.62L11.62-6.23 11.52-6.23 11.62-6.62ZM14.33-15.63L14.53-15.94Q14.4-15.7 14.33-15.63L14.33-15.63ZM14.26-15.5L14.31-15.58 14.26-15.5ZM36.94 0.39L35.91 1.78Q34.49-1.05 33.49-1.05L33.49-1.05Q33.44-1.05 31.64-0.39L31.64-0.39Q31.59-1.12 30.87-2.14 30.15-3.15 30.15-4.15L30.15-4.15 30.2-4.15Q30.2-5.03 29.71-6.69 29.22-8.35 28.88-9.69 28.54-11.04 28.11-13.92 27.68-16.8 27.28-20.28 26.88-23.75 26.58-25.63L26.58-25.63 26.41-25.54 26.24-25.59 26.73-26.17 26.24-26.17 26.24-26.78 26.32-26.78 26.24-27.34 26.46-27.29Q26.78-27.98 26.78-28.61L26.78-28.61 26.73-29 26.27-29Q26.61-29.13 27.44-30.59 28.27-32.06 29.2-33.07 30.12-34.08 31.27-34.94L31.27-34.94Q33.93-36.91 38.28-36.91L38.28-36.91 38.28-36.38 38.74-36.91 41.5-36.38 41.5-36.91Q44.02-36.91 47.85-33.57L47.85-33.57 48.34-34.11 48.39-33.67 47.95-33.57 48.85-32.96 48.39-32.45Q48.53-32.13 49.05-31.71 49.56-31.3 49.88-31.3L49.88-31.3 49.97-31.3 51.27-29.59 50.93-29.59Q50.78-28.96 50.78-27.56 50.78-26.17 50.83-25.59L50.83-25.59 51.27-25.05 50.83-20.56 51.27-20.56Q50.49-14.26 48.39-8.11L48.39-8.11Q48.29-7.84 47.97-7.08L47.97-7.08Q47.36-5.59 47.36-4.69L47.36-4.69 47.85-4.15Q47.31-4.15 46.92-3.38 46.53-2.61 46.41-1.88L46.41-1.88Q45.48-0.81 45.2 0.05 44.92 0.9 44.92 2.22L44.92 2.22 44.92 3.78 44.43 3.78Q43.85 3.78 43.85 3.13L43.85 3.13 43.97 1.86Q43.97 1.05 42.99 0.93L42.99 0.93 42.99 1.46 42.67 1.42 41.99 2.1 41.5 1.61 41.5 2.66 40.82 3.27Q40.09 3.13 39.78 2.55 39.48 1.98 39.5 1.39L39.5 1.39Q39.57-0.15 38.28-0.15L38.28-0.15Q37.96-0.15 37.58 0.2 37.2 0.54 37.12 0.54 37.03 0.54 36.94 0.39L36.94 0.39ZM37.84-4.69L38.28-4.69Q40.06-4.69 40.06-7.86L40.06-7.86Q40.06-8.4 40.01-8.67L40.01-8.67 40.52-8.67 40.52-9.81 41.01-9.81 40.52-10.35 40.52-10.96Q40.52-11.5 41.01-12.04L41.01-12.04 41.01-13.77Q41.01-14.89 40.52-15.43L40.52-15.43 40.52-16.67Q40.52-19.48 39.62-20.65L39.62-20.65Q39.23-21.14 38.69-21.14L38.69-21.14 37.84-21.14 37.84-20.56 37.38-20.56Q35.98-18.6 35.98-16.58L35.98-16.58 35.98-12.04Q35.98-11.72 36.28-11.47L36.28-11.47 35.98-11.47 35.98-9.81Q35.98-9.18 36.55-8.67L36.55-8.67Q36.55-7.81 36.95-6.57 37.35-5.32 37.84-4.69L37.84-4.69ZM26.24-25.05L26.73-24.49 26.24-24.49 26.24-25.05ZM26.32-24.22L26.73-23.95 26.24-23.95 26.32-24.22ZM73.87 0.63L73.48-0.46 74.31-0.56 72.99-1.12 71.7 0 71.7-0.76Q71.6-1.17 71.26-1.17L71.26-1.17 71.26-0.71Q71.16-1.54 70.78-2.03 70.41-2.51 69.45-2.51L69.45-2.51Q69.23-2.17 68.95-2.17 68.67-2.17 68.6-2.22L68.6-2.22 68.67-1.25Q68.67 0.59 68.16 0.59L68.16 0.59Q67.79-0.66 67.18-1.12L67.18-1.12Q66.87-1.12 66.77-1.07L66.77-1.07 67.18-0.63 66.18 0.17 65.25-0.39Q65.25-1.1 64.62-1.32L64.62-1.32Q63.81-1.64 62.28-1.64L62.28-1.64Q62.28-1.93 61.58-5.14 60.88-8.35 60.83-8.45L60.83-8.45Q60.74-8.35 60.63-8.35 60.52-8.35 60.38-8.51 60.25-8.67 60.25-8.8 60.25-8.94 60.35-9.03L60.35-9.03 59.83-9.62 60.35-10.74 59.83-10.74Q59.3-11.38 59.26-12.5 59.22-13.62 59.71-13.87L59.71-13.87 59.35-14.11 59.35-14.65Q59.35-17.53 58.52-21.64 57.69-25.76 57.49-27.15L57.49-27.15 57.17-27.15 57.49-27.66Q56.54-28.76 56.54-31.25L56.54-31.25 56.54-32.23Q56.15-32.69 55.7-33.3 55.24-33.91 55.05-34.14 54.85-34.38 54.46-34.64L54.46-34.64Q53.85-35.06 52.14-35.06L52.14-35.06Q53.07-35.28 56.68-35.73 60.3-36.18 61.81-36.74L61.81-36.74 61.81-36.18 62.28-36.74 68.6-36.74 68.16-36.18 68.16-34.45 67.67-33.91Q67.7-33.94 67.87-33.94L67.87-33.94Q68.26-33.94 68.26-33.57L68.26-33.57Q68.26-33.47 68.16-33.37L68.16-33.37 67.67-32.76Q68.21-31.93 68.21-30.98 68.21-30.03 67.67-29.39L67.67-29.39Q68.72-28.17 68.72-22.41L68.72-22.41Q68.72-19.87 68.6-18.6L68.6-18.6 68.16-18.6 68.16-14.65Q68.16-13.77 68.61-11.98 69.06-10.18 69.06-9.5L69.06-9.5 69.01-7.91Q69.01-6.18 70.8-6.18L70.8-6.18 71.7-6.79 71.7-7.32 72.14-7.86 71.7-8.45Q72.58-9.77 72.58-12.84L72.58-12.84 72.58-14.11 72.77-14.26 72.14-15.26 72.58-15.8 72.58-16.99 72.99-16.99 73.48-28.27 72.99-28.81 72.99-29.39 73.48-29.39Q73.58-29.52 73.58-29.65 73.58-29.79 73.2-29.92 72.82-30.05 72.82-30.16 72.82-30.27 72.99-30.52L72.99-30.52 72.58-31.01 72.65-30.98Q72.75-30.98 72.87-31.13 72.99-31.27 72.99-31.37 72.99-31.47 72.9-31.52L72.9-31.52Q73.51-32.13 73.51-33.72 73.51-35.3 73.48-35.62L73.48-35.62 72.99-36.18 75.65-36.18Q77.56-36.18 80.07-35.06L80.07-35.06 80.49-35.62Q81.76-35.62 84.25-34.5 86.74-33.37 88.15-33.37L88.15-33.37Q86.2-32.23 84.2-29.93L84.2-29.93 84.69-29.47 84.59-29.47Q84.42-29.47 84.27-29.31 84.13-29.15 84.13-29 84.13-28.86 84.2-28.81L84.2-28.81 84.74-28.27 84.2-28.27Q81-21.9 81-12.62L81-12.62Q81-11.69 80.49-10.74L80.49-10.74 80.49-9.62 80.07-9.62 80.12-8.91Q80.12-7.86 79.63-7.86L79.63-7.86 80.07-6.79 79.19-4.52Q79.24-4.61 79.35-4.61 79.46-4.61 79.58-4.46 79.71-4.3 79.71-4.16 79.71-4.03 79.63-3.96L79.63-3.96 79.19-4.52 78.73-3.37 79.19-2.83 78.73-2.83 77.83-1.12 77.83-0.56Q77.68-0.51 76.9-0.51 76.12-0.51 75.21-1.12L75.21-1.12Q75.04-0.66 74.64-0.02 74.24 0.61 73.87 0.63L73.87 0.63ZM109.64 0.88L109.64 0.88 109.76 6.59 109.25 7.18 109.25 4.91 107.78 4.91 107.78 6.05 107.27 6.05Q106.78 5.57 106.78 4.3L106.78 4.3 103.36 4.3 102.87 3.76 102.92 1.66Q102.92-0.05 102.41-1.34L102.41-1.34 102.87-0.76 102.87-4.76 102.41-4.76 101.9-11.04 101.9-11.52 101.56-11.91 101.9-12.04 101.9-13.21 101.48-13.77 101.9-15.43Q101.46-16.06 101.46-16.85 101.46-17.63 101.48-17.72L101.48-17.72Q101.02-18.31 101.02-19.56L101.02-19.56 101.02-20.39Q100.77-19.85 98.21-19.14 95.65-18.43 95.31-18.26L95.31-18.26 94.87-18.87 94.87-18.26 93.89-17.19Q93.89-21.83 93.06-25.46L93.06-25.46Q91.52-32.18 88.52-34.64L88.52-34.64Q90.72-34.64 92.45-35.84L92.45-35.84Q92.72-35.79 93.51-35.79 94.3-35.79 96.32-36.39 98.33-36.99 99.28-36.99L99.28-36.99 109.76-36.99Q112.15-36.99 115.56-36.21 118.96-35.42 120.09-35.23L120.09-35.23Q120.09-34.94 118.71-32.34 117.33-29.74 117.13-29.59L117.13-29.59 116.69-29.59 116.69-29 117.13-29Q117.13-24.93 116.18-18.26L116.18-18.26 115.69-18.26 114.71-19.41Q114.06-19.26 113.54-19.26L113.54-19.26Q112.15-19.26 110.2-20.56L110.2-20.56 109.76-20.56 110.2-18.87 109.76-17.72Q110.25-17.14 110.25-15.36 110.25-13.57 110.22-12.62 110.2-11.67 110.2-11.52L110.2-11.52Q110.17-11.52 110.08-11.65L110.08-11.65Q109.98-11.65 109.98-11.47L109.98-11.47 110.3-9.91 109.81-6.27Q109.81-5.37 110.2-4.76L110.2-4.76Q109.64-2.49 109.64 0.88ZM149.92-14.33L150.01-12.45 149.53-8.52 148.6-7.74 149.04-7.91Q149.04-6.3 148.54-3.15 148.04 0 148.04 1.66L148.04 1.66 148.09 1.66Q148.09 2.47 147.48 2.92 146.87 3.37 146.11 3.37L146.11 3.37 146.84 1.66 146.62 1.12 146.52 1.1 145.33 1.71 145.11 1.66 144.18 0.68 144.25 1.34Q144.25 2.76 143.18 2.76L143.18 2.76Q143.13 2.71 142.93 2.54L142.93 2.54Q142.49 2.2 142.49 2 142.49 1.81 142.67 1.66L142.67 1.66 141.71 1.12 141.2 1.86Q141.23 1.39 141.47 0.4 141.71-0.59 141.71-1.12L141.71-1.12 140.74-0.59 140.32-1.68Q141.25-1.68 141.25-5.81L141.25-5.81 141.2-7.98Q141.2-8.42 141.48-9.24 141.76-10.06 141.76-10.42 141.76-10.79 141.42-10.79L141.42-10.79 141.2-10.74 140.74-11.33Q140.15-11.33 138.99-11.04 137.83-10.74 137.22-10.74L137.22-10.74 137.22-10.21 136.56-9.45 136.95-9.67Q137.32-7.1 137.32-7.03L137.32-7.03 137.22-0.59 135.29 0.54 135.34 0.17 135.17 0.05 133.32 0.05 132.34 0.54Q132.27 1.42 130.39 1.66L130.39 1.66 129.31 0.68Q129.31 0.54 129.7 0.54 130.09 0.54 130.39 0.73L130.39 0.73Q130.36-1.1 129.89-4.92 129.41-8.74 129.41-11.12 129.41-13.5 128.68-17 127.94-20.51 127.21-23.95 126.48-27.39 126.48-29.76 126.48-32.13 125.09-33.56 123.7-34.99 121.72-35.11L121.72-35.11Q125.82-35.11 128.77-35.63 131.73-36.16 132.34-36.79L132.34-36.79 132.46-36.18 132.56-36.13Q132.88-36.13 132.88-36.62L132.88-36.62 132.83-36.79Q133.93-36.79 135.99-37.05 138.05-37.3 139-37.3L139-37.3Q138.22-36.23 136.78-33.37L136.78-33.37 137.22-32.81 136.78-16.99 139-17.5 139-16.99 142.2-17.5 142.2-17.24Q142.84-18.07 142.84-21.68L142.84-21.68 142.67-27.71Q142.67-28.37 143.15-29.75 143.64-31.13 144.13-31.13L144.13-31.13Q144.13-31.62 143.64-32.03L143.64-32.03Q142.67-32.84 142.67-34.52L142.67-34.52 142.2-37.3Q144.67-37.3 146.11-36.79L146.11-36.79 146.69-37.3 149.04-36.79 149.04-37.3 149.62-36.62 152.97-36.79Q153.33-36.25 154.62-36.21 155.9-36.16 156.36-35.64L156.36-35.64 157.73-35.64Q155.95-35.35 153.53-28.66L153.53-28.66Q152.46-25.93 152.41-24.9L152.41-24.9 152.36-23.78 152.02-23.78 152.46-23.24Q151.19-18.95 150.48-17.43L150.48-17.43 151.02-16.43Q149.92-16.43 149.92-14.33L149.92-14.33ZM178.53-27.95L178.53-27.95 178.53-25.34Q178.53-20.63 177.5-18.55L177.5-18.55Q177.97-18.55 177.97-19.12L177.97-19.12 177.97-19.31 178.41-19.68Q178.01-19.29 178.01-18.35 178.01-17.41 178.37-15.6 178.72-13.79 178.75-13.45L178.75-13.45 178.28-13.45 178.28-14.4Q177.84-13.53 177.84-12.57L177.84-12.57 177.84-12.33 178.41-11.65 178.31-12.92 178.8-12.92 178.8-12.72Q178.8-10.64 178.23-6.51 177.67-2.37 177.67 0.6 177.67 3.56 176.92 3.66L176.92 3.66 176.55 3.27 175.96 3.37 175.57 2.83 174.5 3.3 174.57 3.22 173.5 2.22 172.59 2.88 172.01 2.83 172.52 2.22Q172.52 1.71 172.66 0.68 172.79-0.34 172.79-0.88L172.79-0.88 172.35-0.59 171.91-1.12 172.3-1.12Q171.69-1.93 171.25-2.83L171.25-2.83 170.52-2.69 169.96-3.13 169.52-2.22 169.96-2.22 170.01-1.68 169.64-1.76 169.67-1.34Q169.67-0.83 169.46-0.07 169.25 0.68 168.99 0.68 168.74 0.68 168.64 0.29L168.64 0.29Q168.49 2.49 167.96 3.98L167.96 3.98 167.39 3.42 167.39 3.76Q167.39 4.15 167.13 4.35L167.13 4.35Q166.78 4.54 166 4.54L166 4.54 165.95 3.98Q165.25 4.22 164.12 4.39L164.12 4.39Q163.27 3.39 163.26 1.29 163.24-0.81 163.22-1.12L163.22-1.12 163.61-1.07 163.71-1.68Q163.27-1.81 163.06-3.6 162.85-5.4 162.8-5.57L162.8-5.57Q163.71-5.57 163.71-7.37L163.71-7.37 163.71-7.81 163.22-7.28 163.12-9.16Q163.12-10.3 163.31-12.08 163.49-13.87 163.76-14.65L163.76-14.65 163.32-14.65 164.17-17.09Q164.17-18.07 163.77-20.02 163.37-21.97 163.37-23.05 163.37-24.12 164.25-24.61L164.25-24.61Q163.39-27.37 163.37-30.59L163.37-30.59 163.76-31.18Q163.32-31.37 161.4-33.44 159.48-35.5 158.9-35.5L158.9-35.5 158.75-35.5Q158.75-36.13 164-36.71 169.25-37.28 173.01-37.28L173.01-37.28Q173.38-37.28 174.04-36.69L174.04-36.69Q175.87-37.3 179.14-37.3L179.14-37.3 183.26-37.28Q180.26-35.4 179.33-33.13L179.33-33.13Q178.53-31.2 178.53-27.95ZM169.76-11.79L169.76-11.79 169.81-11.23 169.37-11.23 169.54-9.35Q169.54-8.45 169.08-7.81L169.08-7.81 169.1-7.28 169.54-7.81 172.23-7.81 172.11-10.11 171.84-10.67 172.01-11.79Q172.01-14.06 171.42-14.06L171.42-14.06 171.84-14.65 171.42-14.65 171.79-15.14 171.37-15.14 171.33-15.75Q171.74-15.75 171.74-16.28L171.74-16.28 171.3-16.28 171.18-19.02Q171.06-18.12 170.41-15.66 169.76-13.21 169.76-11.79ZM178.36-8.86L178.36-8.86 178.14-8.96Q178.09-8.96 178.09-8.67L178.09-8.67 178.09-8.28Q178.09-8.33 178.45-8.91L178.45-8.91Q178.41-8.86 178.36-8.86ZM176.82 3.66L177.06 3.78 176.82 3.66ZM174.5 3.3L174.45 3.37Q174.45 3.3 174.5 3.3L174.5 3.3ZM188-18.6L188-18.6 187.51-23.78 186.51-23.78 186.51-24.24Q186.51-24.63 186.8-25.57 187.09-26.51 187.09-26.99 187.09-27.47 187.05-27.66L187.05-27.66 186.51-27.66 187.05-28.27 187.05-28.81Q187.05-29.64 186.44-30.47 185.82-31.3 185.09-31.84L185.09-31.84Q183.14-33.33 183.09-33.91L183.09-33.91 183.63-33.37Q186-34.5 196.03-36.52L196.03-36.52Q199.25-37.16 199.4-37.28L199.4-37.28 199.4-36.74 200.3-37.28 199.4-36.18 199.4-34.45Q199.4-34.01 199.64-33.11 199.89-32.2 199.89-31.75 199.89-31.3 199.84-31.08L199.84-31.08Q200.35-30.35 200.5-29.16 200.64-27.98 200.73-26.94 200.82-25.9 201.18-25.46L201.18-25.46 202.52-30.52 202.08-30.52 202.08-31.08 202.52-30.64Q202.96-31.2 202.96-31.91 202.96-32.62 202.91-32.76L202.91-32.76 203.82-34.45Q203.87-34.62 203.87-34.99 203.87-35.35 203.6-36.08 203.33-36.82 203.33-37.06L203.33-37.06 203.35-37.28 203.82-37.87 204.26-37.28 204.26-37.87 205.14-37.87 205.6-36.74 207.33-36.74Q207.58-37.3 208.84-37.3 210.09-37.3 212-36.93 213.9-36.55 216.33-35.91 218.76-35.28 219.86-35.06L219.86-35.06 219.37-34.45 218.42-34.45 216.93-33.37 216.93-32.76 216.29-32.76 214.95-31.08 214.95-29.39 215.17-29.39 214.46-28.27Q214.46-27.81 214.32-27.29L214.32-27.29 214.1-26.9 213.97-26.88Q213.88-27.17 213.75-27.17 213.63-27.17 213.53-27.15L213.53-27.15 213.97-25.98Q213.53-24.29 212.85-19.38L212.85-19.38Q211.14-7.18 209.53-5.05L209.53-5.05 209.78-4.52 209.12-3.96 209.53-3.37 209.12-3.37 209.12-1.12Q208.53-0.29 208.24 2.12L208.24 2.12 207.8 1.71 207.8 0 207.33-0.56 207.33 0.59 206.94 1.17Q206.8 0.85 206.63 0.37 206.45-0.12 206.37-0.32 206.28-0.51 206.09-0.73L206.09-0.73Q205.75-1.12 204.7-1.12L204.7-1.12Q204.26-0.49 204.26 0.59L204.26 0.59 203.35 0.59 203.35-0.56 202.91-0.56 204.7-14.65 204.26-14.65Q203.82-14.04 203.82-12.4L203.82-12.4 202.91-10.74 202.91-10.45Q202.91-9.01 202.52-8.45L202.52-8.45Q202.52-7.4 202.08-6.79L202.08-6.79 202.08-5.64 201.6-5.05Q201.6-4.3 201.16-2.91 200.72-1.51 200.72-1.1 200.72-0.68 200.77-0.34L200.77-0.34Q199.62-0.15 198.98 0.59L198.98 0.59 198.69 0.59 198.98 0Q198.72-0.76 198.52-3.31 198.32-5.86 197.67-6.79L197.67-6.79 197.64-7.03Q197.64-7.54 197.98-8.62L197.98-8.62Q197.81-8.89 197.18-11.8 196.54-14.72 196.32-15.38L196.32-15.38 196.32-6.79 196.79-6.79 196.79-5.64 196.32-5.64 196.79-5.05Q196.23-4.39 196.23-2.76 196.23-1.12 196.32 0L196.32 0 195.32 0 194.39-0.56 194.39-1.64 193.88-1.12 193.39-1.64 193.39-1.54Q193.39-1.39 193.3-1.23 193.2-1.07 193.14-1.07 193.08-1.07 192.98-1.17L192.98-1.17 191.9-0.56 191.9 2.83 191.42 3.42 190.46 3.42 190.46 2.29 190.39 2.29Q190.19 2.29 190.19 2 190.19 1.71 190.39 1.71L190.39 1.71 190.46 1.71 190.46-0.56 189.93-1.12 189.93-2.83 189.49-3.37 189.54-5.74Q189.56-7.25 189.02-10.22 188.49-13.18 188.49-14.65L188.49-14.65 188-14.65 188.49-15.26 188.49-15.5Q188.49-16.06 188.29-16.22 188.1-16.38 187.51-16.38L187.51-16.38Q187.85-17.63 188.49-18.07L188.49-18.07 187.51-18.07Q187.41-18.16 187.41-18.26L187.41-18.26Q187.41-18.41 187.55-18.55 187.68-18.7 187.79-18.7 187.9-18.7 188-18.6Z" fill="white"></path></g></svg></g></svg></g></svg></g></svg></g><g transform="matrix(1,0,0,1,441.4414142464974,0)"><svg viewBox="0 0 126.04270712335942 112.8573120859445" height="112.8573120859445" width="126.04270712335942"><g><svg xmlns="http://www.w3.org/2000/svg" xmlns:xlink="http://www.w3.org/1999/xlink" version="1.1" x="0" y="0" viewBox="5.421734962878724 14.522457300345891 89.54153007424256 80.17454269965411" enable-background="new 0 0 100 100" xml:space="preserve" height="112.8573120859445" width="126.04270712335942" class="icon-icon-0" data-fill-palette-color="accent" id="SvgjsSvg1000"><g fill="black"><path d="M63.313 50.225C63.819 50.225 64.234 50.622 64.262 51.121L63.274 65.653H36.986L35.998 51.121A0.95 0.95 0 0 1 36.947 50.225zM63.313 47.947H36.948A3.23 3.23 0 0 0 33.719 51.176L34.858 67.932H65.403L66.542 51.176A3.23 3.23 0 0 0 63.313 47.947" fill="black"></path><path fill-rule="evenodd" clip-rule="evenodd" d="M64.416 72.262H35.827A0.97 0.97 0 0 1 34.858 71.293V69.2H65.385V71.293A0.97 0.97 0 0 1 64.416 72.262" fill="black"></path><circle cx="50.121" cy="57.939" r="1.9" fill="black"></circle><circle cx="82.075" cy="21.12" r="6.4" fill="black"></circle><path d="M31.199 42.809L30.164 33.025A3.444 3.444 0 0 0 26.75 30.008L9.798 29.989A3.444 3.444 0 0 0 6.365 33.12C6.363 31.947 5.725 42.579 5.423 52.328 5.419 52.465 5.424 52.599 5.445 52.734 5.97 56.194 7.318 60.642 14.369 62.907 18.586 64.261 19.483 60.919 17.865 58.927 16.277 56.973 14.858 55.424 13.902 54.026 13.009 52.72 13.181 49.002 13.211 48.549 14.448 47.827 16.58 46.947 17.529 46.566 21.543 44.952 26.18 43.709 31.199 42.809" fill="black"></path><path d="M94.796 58.374A11.6 11.6 0 0 1 92.346 61.333C91.966 64.63 87.772 68.157 80.958 70.861 72.761 74.114 61.802 75.905 50.099 75.905S27.437 74.114 19.24 70.861C12.301 68.107 8.076 64.5 7.832 61.152A11.5 11.5 0 0 1 5.473 58.171C5.199 58.898 6.923 84.911 6.923 84.911H12.278L12.134 70.523C16.831 73.419 23.571 75.742 31.551 77.172L32.781 94.697H38.068L39.423 78.247C42.847 78.577 46.419 78.756 50.099 78.756 53.648 78.756 57.096 78.588 60.408 78.281L61.55 94.697H66.837L68.277 77.238C76.421 75.813 83.297 73.462 88.067 70.52L87.941 84.666H93.296C93.297 84.666 95.026 59.035 94.796 58.374" fill="black"></path><path d="M69.186 42.809L70.221 33.025A3.444 3.444 0 0 1 73.635 30.008L90.587 29.99A3.444 3.444 0 0 1 94.02 33.121C94.022 31.948 94.66 42.58 94.962 52.329 94.966 52.466 94.961 52.6 94.94 52.735 94.415 56.195 93.067 60.643 86.016 62.908 81.799 64.262 80.902 60.92 82.52 58.928 84.108 56.974 85.527 55.425 86.483 54.027 87.376 52.721 87.204 49.003 87.174 48.55 85.937 47.828 83.805 46.948 82.856 46.567 78.842 44.952 74.205 43.709 69.186 42.809" fill="black"></path><path d="M15.209 51.762A42 42 0 0 1 18.94 50.075C27.23 46.785 38.296 44.973 50.099 44.973S72.968 46.785 81.258 50.075A41 41 0 0 1 85.177 51.859V49.581C76.904 45.529 64.265 42.938 50.099 42.938 36.041 42.938 23.486 45.489 15.209 49.488z" fill="black"></path><path d="M15.768 15.02A6.2 6.2 0 0 1 17.585 14.553C20.992 14.215 24.028 16.721 24.369 20.153S22.226 26.643 18.819 26.981C16.657 27.196 14.646 26.26 13.377 24.671 11.655 26.118 9.469 30.843 6.016 24.465 10.428 28.001 10.274 16.932 15.768 15.02" fill="black"></path><path d="M42.892 31.367L31.548 25.808V23.993L42.892 17.697V20.743L35.078 24.767 42.892 28.334z" fill="black"></path><path d="M54.851 15.387L48.626 33.944H45.462L51.687 15.387z" fill="black"></path><path d="M57.842 28.333L65.656 24.766 57.842 20.742V17.696L69.186 23.992V25.807L57.842 31.366z" fill="black"></path></g></svg></g></svg></g></svg></g><defs><mask></mask></defs></svg><rect width="395.5199999999999" height="78.65827852325134" fill="black" stroke="none" visibility="hidden"></rect></g></mask><linearGradient x1="0.054" x2="0.941" y1="0.5" y2="0.5" id="74312f50-57fd-42f7-b44a-3add8d43ca0e"><stop stop-color="#9c7945" offset="0"></stop><stop stop-color="#faf3aa" offset="0.498"></stop><stop stop-color="#9c7945" offset="1"></stop></linearGradient><rect width="395.5199999999999" height="78.65827852325134" fill="url(#74312f50-57fd-42f7-b44a-3add8d43ca0e)" mask="url(#2f8636e1-1271-41c6-bd88-6d647c8d46cf)" data-fill-palette-color="primary"></rect><mask id="45274407-646c-438b-b546-326196e831ba"><g id="SvgjsG1028"><svg viewBox="0 0 395.5199999999999 78.65827852325134" height="78.65827852325134" width="395.5199999999999"><g><svg viewBox="0 0 567.4841213698568 112.8573120859445" height="78.65827852325134" width="395.5199999999999"><g></g><g transform="matrix(1,0,0,1,0,15.597501163831694)"><svg viewBox="0 0 395.52 81.66230975828111" height="81.66230975828111" width="395.52"><g id="SvgjsG1027"><svg viewBox="0 0 395.52 81.66230975828111" height="81.66230975828111" width="395.52" id="SvgjsSvg1026"><g><svg viewBox="0 0 395.52 81.66230975828111" height="81.66230975828111" width="395.52"><g transform="matrix(1,0,0,1,0,0)"><svg width="395.52" viewBox="1.71 -37.87 218.15 45.05" height="81.66230975828111" data-palette-color="url(#74312f50-57fd-42f7-b44a-3add8d43ca0e)"><g class="wordmark-text-0" data-fill-palette-color="primary" id="SvgjsG1025"></g></svg></g></svg></g></svg></g></svg></g><g transform="matrix(1,0,0,1,441.4414142464974,0)"><svg viewBox="0 0 126.04270712335942 112.8573120859445" height="112.8573120859445" width="126.04270712335942"><g><svg xmlns="http://www.w3.org/2000/svg" xmlns:xlink="http://www.w3.org/1999/xlink" version="1.1" x="0" y="0" viewBox="5.421734962878724 14.522457300345891 89.54153007424256 80.17454269965411" enable-background="new 0 0 100 100" xml:space="preserve" height="112.8573120859445" width="126.04270712335942" class="icon-icon-0" data-fill-palette-color="accent" id="SvgjsSvg1024"><g fill="white"><path d="M63.313 50.225C63.819 50.225 64.234 50.622 64.262 51.121L63.274 65.653H36.986L35.998 51.121A0.95 0.95 0 0 1 36.947 50.225zM63.313 47.947H36.948A3.23 3.23 0 0 0 33.719 51.176L34.858 67.932H65.403L66.542 51.176A3.23 3.23 0 0 0 63.313 47.947" fill="white"></path><path fill-rule="evenodd" clip-rule="evenodd" d="M64.416 72.262H35.827A0.97 0.97 0 0 1 34.858 71.293V69.2H65.385V71.293A0.97 0.97 0 0 1 64.416 72.262" fill="white"></path><circle cx="50.121" cy="57.939" r="1.9" fill="white"></circle><circle cx="82.075" cy="21.12" r="6.4" fill="white"></circle><path d="M31.199 42.809L30.164 33.025A3.444 3.444 0 0 0 26.75 30.008L9.798 29.989A3.444 3.444 0 0 0 6.365 33.12C6.363 31.947 5.725 42.579 5.423 52.328 5.419 52.465 5.424 52.599 5.445 52.734 5.97 56.194 7.318 60.642 14.369 62.907 18.586 64.261 19.483 60.919 17.865 58.927 16.277 56.973 14.858 55.424 13.902 54.026 13.009 52.72 13.181 49.002 13.211 48.549 14.448 47.827 16.58 46.947 17.529 46.566 21.543 44.952 26.18 43.709 31.199 42.809" fill="white"></path><path d="M94.796 58.374A11.6 11.6 0 0 1 92.346 61.333C91.966 64.63 87.772 68.157 80.958 70.861 72.761 74.114 61.802 75.905 50.099 75.905S27.437 74.114 19.24 70.861C12.301 68.107 8.076 64.5 7.832 61.152A11.5 11.5 0 0 1 5.473 58.171C5.199 58.898 6.923 84.911 6.923 84.911H12.278L12.134 70.523C16.831 73.419 23.571 75.742 31.551 77.172L32.781 94.697H38.068L39.423 78.247C42.847 78.577 46.419 78.756 50.099 78.756 53.648 78.756 57.096 78.588 60.408 78.281L61.55 94.697H66.837L68.277 77.238C76.421 75.813 83.297 73.462 88.067 70.52L87.941 84.666H93.296C93.297 84.666 95.026 59.035 94.796 58.374" fill="white"></path><path d="M69.186 42.809L70.221 33.025A3.444 3.444 0 0 1 73.635 30.008L90.587 29.99A3.444 3.444 0 0 1 94.02 33.121C94.022 31.948 94.66 42.58 94.962 52.329 94.966 52.466 94.961 52.6 94.94 52.735 94.415 56.195 93.067 60.643 86.016 62.908 81.799 64.262 80.902 60.92 82.52 58.928 84.108 56.974 85.527 55.425 86.483 54.027 87.376 52.721 87.204 49.003 87.174 48.55 85.937 47.828 83.805 46.948 82.856 46.567 78.842 44.952 74.205 43.709 69.186 42.809" fill="white"></path><path d="M15.209 51.762A42 42 0 0 1 18.94 50.075C27.23 46.785 38.296 44.973 50.099 44.973S72.968 46.785 81.258 50.075A41 41 0 0 1 85.177 51.859V49.581C76.904 45.529 64.265 42.938 50.099 42.938 36.041 42.938 23.486 45.489 15.209 49.488z" fill="white"></path><path d="M15.768 15.02A6.2 6.2 0 0 1 17.585 14.553C20.992 14.215 24.028 16.721 24.369 20.153S22.226 26.643 18.819 26.981C16.657 27.196 14.646 26.26 13.377 24.671 11.655 26.118 9.469 30.843 6.016 24.465 10.428 28.001 10.274 16.932 15.768 15.02" fill="white"></path><path d="M42.892 31.367L31.548 25.808V23.993L42.892 17.697V20.743L35.078 24.767 42.892 28.334z" fill="white"></path><path d="M54.851 15.387L48.626 33.944H45.462L51.687 15.387z" fill="white"></path><path d="M57.842 28.333L65.656 24.766 57.842 20.742V17.696L69.186 23.992V25.807L57.842 31.366z" fill="white"></path></g></svg></g></svg></g></svg></g><defs><mask></mask></defs><mask><g id="SvgjsG1023"><svg viewBox="0 0 395.5199999999999 78.65827852325134" height="78.65827852325134" width="395.5199999999999"><g><svg viewBox="0 0 567.4841213698568 112.8573120859445" height="78.65827852325134" width="395.5199999999999"><g><rect width="7.364391369505461" height="82.07062130707251" x="414.79851143849595" y="15.393345389435993" fill="black" opacity="1" stroke-width="0" stroke="transparent" fill-opacity="1" class="rect-yte-0" rx="1%" id="SvgjsRect1022" data-palette-color="url(#74312f50-57fd-42f7-b44a-3add8d43ca0e)"></rect></g><g transform="matrix(1,0,0,1,0,15.597501163831694)"><svg viewBox="0 0 395.52 81.66230975828111" height="81.66230975828111" width="395.52"><g id="SvgjsG1021"><svg viewBox="0 0 395.52 81.66230975828111" height="81.66230975828111" width="395.52" id="SvgjsSvg1020"><g><svg viewBox="0 0 395.52 81.66230975828111" height="81.66230975828111" width="395.52"><g transform="matrix(1,0,0,1,0,0)"><svg width="395.52" viewBox="1.71 -37.87 218.15 45.05" height="81.66230975828111" data-palette-color="url(#74312f50-57fd-42f7-b44a-3add8d43ca0e)"><g class="wordmark-text-0" data-fill-palette-color="primary" id="SvgjsG1019"><path d="M22.66-16.63L22.66-16.63 23.17-14.7 22.07-14.7Q14.82-14.7 14.72-16.28L14.72-16.28 14.53-15.94Q14.67-16.31 14.67-16.82 14.67-17.33 14.26-18.12L14.26-18.12 14.72-18.65 14.26-18.65 13.82-19.26 13.82-20.02 13.35-19.8Q13.23-20.95 12.11-20.95 10.99-20.95 10.64-20.29 10.3-19.63 10.3-18.19L10.3-18.19 10.21-18.26Q10.38-17.92 10.38-17.43L10.38-17.43 10.3-16.5Q10.25-16.28 10.05-15.73 9.84-15.19 9.84-14.7L9.84-14.7 10.3-14.11 9.84-13.04Q10.23-12.16 10.47-10.18 10.72-8.2 11.18-7.35L11.18-7.35 10.72-7.35 10.72-6.84Q11.52-6.84 11.52-6.23L11.52-6.23 11.43-6.23Q11.18-6.23 11.18-5.64L11.18-5.64 12.45-4.15 13.35-4.52 13.35-4.05 13.82-4Q13.82-4.64 15.28-5.22L15.28-5.22Q15.87-5.44 16.04-5.64L16.04-5.64 15.55-6.23Q16.04-7.5 16.04-7.79L16.04-7.79 16.04-7.91 15.55-7.91Q14.26-7.91 13.35-6.84L13.35-6.84Q13.35-8.03 13.15-10.44 12.94-12.84 12.94-14.11L12.94-14.11Q13.89-12.79 15.7-12.79L15.7-12.79 18.73-13.04Q21.68-13.04 22.71-11.89L22.71-11.89 22.71-9.28Q22.71-4.03 21.73-1.51L21.73-1.51Q20.78 0.88 18.77 1.59L18.77 1.59Q18.65 1.81 18.36 1.88L18.36 1.88Q17.77 2.03 17.77 3.37L17.77 3.37Q17.77 3.74 16.89 3.93L16.89 3.93 16.46 3.3 16.89 3.37 15.99 1.54Q15.14 1.9 14.87 2.31 14.6 2.71 14.6 3.09 14.6 3.47 14.64 3.65 14.67 3.83 14.67 3.98L14.67 3.98Q14.67 3.37 13.82 3.37L13.82 3.37Q13.45 3.37 13.31 2.83L13.31 2.83 13.45 2.61Q13.45 2.22 12.93 1.42 12.4 0.61 12.04 0.04 11.67-0.54 11.62-0.59L11.62-0.59Q11.67-0.32 11.67 0.72 11.67 1.76 11.33 3.52L11.33 3.52Q10.94 3.17 10.62 2.23 10.3 1.29 10.3 0.54L10.3 0.54 9.84 1.12 9.4 1.12 9.5 1.17 8.96 2.22Q8.96 2.51 9.66 3.09 10.35 3.66 10.35 4.08 10.35 4.49 10.23 4.79 10.11 5.08 9.74 5.05L9.74 5.05 8.96 5 8.52 1.66Q8.01 1.66 7.59 1.21 7.18 0.76 6.99 0.54 6.81 0.32 6.53-0.1 6.25-0.51 6.18-0.59L6.18-0.59 6.05-0.51Q3.69-6.1 3.69-11.28L3.69-11.28Q3.69-12.52 2.7-18.64 1.71-24.76 1.71-28L1.71-28Q1.71-29.3 2.27-30L2.27-30 2.39-29.71 2.49-29.83 2.27-31.69Q2.69-32.69 3.69-33.91L3.69-33.91 4.74-33.37 5.05-33.91 4.74-34.52Q5.79-34.52 7.67-35.63 9.55-36.74 10.72-36.74L10.72-36.74 10.72-36.23Q10.96-36.23 11.11-36.49 11.25-36.74 11.62-36.74L11.62-36.74 11.18-35.64Q12.04-36.4 12.04-36.74L12.04-36.74Q14.65-36.74 17.68-35.33 20.7-33.91 22.71-31.69L22.71-31.69 22.14-31.69 22.71-30.44 22.71-30.54Q23.95-29.13 23.95-26.03L23.95-26.03Q23.95-24.95 23.3-21.8 22.66-18.65 22.66-16.63ZM11.18-5.64L11.18-5.64 11.62-6.23Q11.62-5.64 11.18-5.64ZM11.62-6.62L11.62-6.23 11.52-6.23 11.62-6.62ZM14.33-15.63L14.53-15.94Q14.4-15.7 14.33-15.63L14.33-15.63ZM14.26-15.5L14.31-15.58 14.26-15.5ZM36.94 0.39L35.91 1.78Q34.49-1.05 33.49-1.05L33.49-1.05Q33.44-1.05 31.64-0.39L31.64-0.39Q31.59-1.12 30.87-2.14 30.15-3.15 30.15-4.15L30.15-4.15 30.2-4.15Q30.2-5.03 29.71-6.69 29.22-8.35 28.88-9.69 28.54-11.04 28.11-13.92 27.68-16.8 27.28-20.28 26.88-23.75 26.58-25.63L26.58-25.63 26.41-25.54 26.24-25.59 26.73-26.17 26.24-26.17 26.24-26.78 26.32-26.78 26.24-27.34 26.46-27.29Q26.78-27.98 26.78-28.61L26.78-28.61 26.73-29 26.27-29Q26.61-29.13 27.44-30.59 28.27-32.06 29.2-33.07 30.12-34.08 31.27-34.94L31.27-34.94Q33.93-36.91 38.28-36.91L38.28-36.91 38.28-36.38 38.74-36.91 41.5-36.38 41.5-36.91Q44.02-36.91 47.85-33.57L47.85-33.57 48.34-34.11 48.39-33.67 47.95-33.57 48.85-32.96 48.39-32.45Q48.53-32.13 49.05-31.71 49.56-31.3 49.88-31.3L49.88-31.3 49.97-31.3 51.27-29.59 50.93-29.59Q50.78-28.96 50.78-27.56 50.78-26.17 50.83-25.59L50.83-25.59 51.27-25.05 50.83-20.56 51.27-20.56Q50.49-14.26 48.39-8.11L48.39-8.11Q48.29-7.84 47.97-7.08L47.97-7.08Q47.36-5.59 47.36-4.69L47.36-4.69 47.85-4.15Q47.31-4.15 46.92-3.38 46.53-2.61 46.41-1.88L46.41-1.88Q45.48-0.81 45.2 0.05 44.92 0.9 44.92 2.22L44.92 2.22 44.92 3.78 44.43 3.78Q43.85 3.78 43.85 3.13L43.85 3.13 43.97 1.86Q43.97 1.05 42.99 0.93L42.99 0.93 42.99 1.46 42.67 1.42 41.99 2.1 41.5 1.61 41.5 2.66 40.82 3.27Q40.09 3.13 39.78 2.55 39.48 1.98 39.5 1.39L39.5 1.39Q39.57-0.15 38.28-0.15L38.28-0.15Q37.96-0.15 37.58 0.2 37.2 0.54 37.12 0.54 37.03 0.54 36.94 0.39L36.94 0.39ZM37.84-4.69L38.28-4.69Q40.06-4.69 40.06-7.86L40.06-7.86Q40.06-8.4 40.01-8.67L40.01-8.67 40.52-8.67 40.52-9.81 41.01-9.81 40.52-10.35 40.52-10.96Q40.52-11.5 41.01-12.04L41.01-12.04 41.01-13.77Q41.01-14.89 40.52-15.43L40.52-15.43 40.52-16.67Q40.52-19.48 39.62-20.65L39.62-20.65Q39.23-21.14 38.69-21.14L38.69-21.14 37.84-21.14 37.84-20.56 37.38-20.56Q35.98-18.6 35.98-16.58L35.98-16.58 35.98-12.04Q35.98-11.72 36.28-11.47L36.28-11.47 35.98-11.47 35.98-9.81Q35.98-9.18 36.55-8.67L36.55-8.67Q36.55-7.81 36.95-6.57 37.35-5.32 37.84-4.69L37.84-4.69ZM26.24-25.05L26.73-24.49 26.24-24.49 26.24-25.05ZM26.32-24.22L26.73-23.95 26.24-23.95 26.32-24.22ZM73.87 0.63L73.48-0.46 74.31-0.56 72.99-1.12 71.7 0 71.7-0.76Q71.6-1.17 71.26-1.17L71.26-1.17 71.26-0.71Q71.16-1.54 70.78-2.03 70.41-2.51 69.45-2.51L69.45-2.51Q69.23-2.17 68.95-2.17 68.67-2.17 68.6-2.22L68.6-2.22 68.67-1.25Q68.67 0.59 68.16 0.59L68.16 0.59Q67.79-0.66 67.18-1.12L67.18-1.12Q66.87-1.12 66.77-1.07L66.77-1.07 67.18-0.63 66.18 0.17 65.25-0.39Q65.25-1.1 64.62-1.32L64.62-1.32Q63.81-1.64 62.28-1.64L62.28-1.64Q62.28-1.93 61.58-5.14 60.88-8.35 60.83-8.45L60.83-8.45Q60.74-8.35 60.63-8.35 60.52-8.35 60.38-8.51 60.25-8.67 60.25-8.8 60.25-8.94 60.35-9.03L60.35-9.03 59.83-9.62 60.35-10.74 59.83-10.74Q59.3-11.38 59.26-12.5 59.22-13.62 59.71-13.87L59.71-13.87 59.35-14.11 59.35-14.65Q59.35-17.53 58.52-21.64 57.69-25.76 57.49-27.15L57.49-27.15 57.17-27.15 57.49-27.66Q56.54-28.76 56.54-31.25L56.54-31.25 56.54-32.23Q56.15-32.69 55.7-33.3 55.24-33.91 55.05-34.14 54.85-34.38 54.46-34.64L54.46-34.64Q53.85-35.06 52.14-35.06L52.14-35.06Q53.07-35.28 56.68-35.73 60.3-36.18 61.81-36.74L61.81-36.74 61.81-36.18 62.28-36.74 68.6-36.74 68.16-36.18 68.16-34.45 67.67-33.91Q67.7-33.94 67.87-33.94L67.87-33.94Q68.26-33.94 68.26-33.57L68.26-33.57Q68.26-33.47 68.16-33.37L68.16-33.37 67.67-32.76Q68.21-31.93 68.21-30.98 68.21-30.03 67.67-29.39L67.67-29.39Q68.72-28.17 68.72-22.41L68.72-22.41Q68.72-19.87 68.6-18.6L68.6-18.6 68.16-18.6 68.16-14.65Q68.16-13.77 68.61-11.98 69.06-10.18 69.06-9.5L69.06-9.5 69.01-7.91Q69.01-6.18 70.8-6.18L70.8-6.18 71.7-6.79 71.7-7.32 72.14-7.86 71.7-8.45Q72.58-9.77 72.58-12.84L72.58-12.84 72.58-14.11 72.77-14.26 72.14-15.26 72.58-15.8 72.58-16.99 72.99-16.99 73.48-28.27 72.99-28.81 72.99-29.39 73.48-29.39Q73.58-29.52 73.58-29.65 73.58-29.79 73.2-29.92 72.82-30.05 72.82-30.16 72.82-30.27 72.99-30.52L72.99-30.52 72.58-31.01 72.65-30.98Q72.75-30.98 72.87-31.13 72.99-31.27 72.99-31.37 72.99-31.47 72.9-31.52L72.9-31.52Q73.51-32.13 73.51-33.72 73.51-35.3 73.48-35.62L73.48-35.62 72.99-36.18 75.65-36.18Q77.56-36.18 80.07-35.06L80.07-35.06 80.49-35.62Q81.76-35.62 84.25-34.5 86.74-33.37 88.15-33.37L88.15-33.37Q86.2-32.23 84.2-29.93L84.2-29.93 84.69-29.47 84.59-29.47Q84.42-29.47 84.27-29.31 84.13-29.15 84.13-29 84.13-28.86 84.2-28.81L84.2-28.81 84.74-28.27 84.2-28.27Q81-21.9 81-12.62L81-12.62Q81-11.69 80.49-10.74L80.49-10.74 80.49-9.62 80.07-9.62 80.12-8.91Q80.12-7.86 79.63-7.86L79.63-7.86 80.07-6.79 79.19-4.52Q79.24-4.61 79.35-4.61 79.46-4.61 79.58-4.46 79.71-4.3 79.71-4.16 79.71-4.03 79.63-3.96L79.63-3.96 79.19-4.52 78.73-3.37 79.19-2.83 78.73-2.83 77.83-1.12 77.83-0.56Q77.68-0.51 76.9-0.51 76.12-0.51 75.21-1.12L75.21-1.12Q75.04-0.66 74.64-0.02 74.24 0.61 73.87 0.63L73.87 0.63ZM109.64 0.88L109.64 0.88 109.76 6.59 109.25 7.18 109.25 4.91 107.78 4.91 107.78 6.05 107.27 6.05Q106.78 5.57 106.78 4.3L106.78 4.3 103.36 4.3 102.87 3.76 102.92 1.66Q102.92-0.05 102.41-1.34L102.41-1.34 102.87-0.76 102.87-4.76 102.41-4.76 101.9-11.04 101.9-11.52 101.56-11.91 101.9-12.04 101.9-13.21 101.48-13.77 101.9-15.43Q101.46-16.06 101.46-16.85 101.46-17.63 101.48-17.72L101.48-17.72Q101.02-18.31 101.02-19.56L101.02-19.56 101.02-20.39Q100.77-19.85 98.21-19.14 95.65-18.43 95.31-18.26L95.31-18.26 94.87-18.87 94.87-18.26 93.89-17.19Q93.89-21.83 93.06-25.46L93.06-25.46Q91.52-32.18 88.52-34.64L88.52-34.64Q90.72-34.64 92.45-35.84L92.45-35.84Q92.72-35.79 93.51-35.79 94.3-35.79 96.32-36.39 98.33-36.99 99.28-36.99L99.28-36.99 109.76-36.99Q112.15-36.99 115.56-36.21 118.96-35.42 120.09-35.23L120.09-35.23Q120.09-34.94 118.71-32.34 117.33-29.74 117.13-29.59L117.13-29.59 116.69-29.59 116.69-29 117.13-29Q117.13-24.93 116.18-18.26L116.18-18.26 115.69-18.26 114.71-19.41Q114.06-19.26 113.54-19.26L113.54-19.26Q112.15-19.26 110.2-20.56L110.2-20.56 109.76-20.56 110.2-18.87 109.76-17.72Q110.25-17.14 110.25-15.36 110.25-13.57 110.22-12.62 110.2-11.67 110.2-11.52L110.2-11.52Q110.17-11.52 110.08-11.65L110.08-11.65Q109.98-11.65 109.98-11.47L109.98-11.47 110.3-9.91 109.81-6.27Q109.81-5.37 110.2-4.76L110.2-4.76Q109.64-2.49 109.64 0.88ZM149.92-14.33L150.01-12.45 149.53-8.52 148.6-7.74 149.04-7.91Q149.04-6.3 148.54-3.15 148.04 0 148.04 1.66L148.04 1.66 148.09 1.66Q148.09 2.47 147.48 2.92 146.87 3.37 146.11 3.37L146.11 3.37 146.84 1.66 146.62 1.12 146.52 1.1 145.33 1.71 145.11 1.66 144.18 0.68 144.25 1.34Q144.25 2.76 143.18 2.76L143.18 2.76Q143.13 2.71 142.93 2.54L142.93 2.54Q142.49 2.2 142.49 2 142.49 1.81 142.67 1.66L142.67 1.66 141.71 1.12 141.2 1.86Q141.23 1.39 141.47 0.4 141.71-0.59 141.71-1.12L141.71-1.12 140.74-0.59 140.32-1.68Q141.25-1.68 141.25-5.81L141.25-5.81 141.2-7.98Q141.2-8.42 141.48-9.24 141.76-10.06 141.76-10.42 141.76-10.79 141.42-10.79L141.42-10.79 141.2-10.74 140.74-11.33Q140.15-11.33 138.99-11.04 137.83-10.74 137.22-10.74L137.22-10.74 137.22-10.21 136.56-9.45 136.95-9.67Q137.32-7.1 137.32-7.03L137.32-7.03 137.22-0.59 135.29 0.54 135.34 0.17 135.17 0.05 133.32 0.05 132.34 0.54Q132.27 1.42 130.39 1.66L130.39 1.66 129.31 0.68Q129.31 0.54 129.7 0.54 130.09 0.54 130.39 0.73L130.39 0.73Q130.36-1.1 129.89-4.92 129.41-8.74 129.41-11.12 129.41-13.5 128.68-17 127.94-20.51 127.21-23.95 126.48-27.39 126.48-29.76 126.48-32.13 125.09-33.56 123.7-34.99 121.72-35.11L121.72-35.11Q125.82-35.11 128.77-35.63 131.73-36.16 132.34-36.79L132.34-36.79 132.46-36.18 132.56-36.13Q132.88-36.13 132.88-36.62L132.88-36.62 132.83-36.79Q133.93-36.79 135.99-37.05 138.05-37.3 139-37.3L139-37.3Q138.22-36.23 136.78-33.37L136.78-33.37 137.22-32.81 136.78-16.99 139-17.5 139-16.99 142.2-17.5 142.2-17.24Q142.84-18.07 142.84-21.68L142.84-21.68 142.67-27.71Q142.67-28.37 143.15-29.75 143.64-31.13 144.13-31.13L144.13-31.13Q144.13-31.62 143.64-32.03L143.64-32.03Q142.67-32.84 142.67-34.52L142.67-34.52 142.2-37.3Q144.67-37.3 146.11-36.79L146.11-36.79 146.69-37.3 149.04-36.79 149.04-37.3 149.62-36.62 152.97-36.79Q153.33-36.25 154.62-36.21 155.9-36.16 156.36-35.64L156.36-35.64 157.73-35.64Q155.95-35.35 153.53-28.66L153.53-28.66Q152.46-25.93 152.41-24.9L152.41-24.9 152.36-23.78 152.02-23.78 152.46-23.24Q151.19-18.95 150.48-17.43L150.48-17.43 151.02-16.43Q149.92-16.43 149.92-14.33L149.92-14.33ZM178.53-27.95L178.53-27.95 178.53-25.34Q178.53-20.63 177.5-18.55L177.5-18.55Q177.97-18.55 177.97-19.12L177.97-19.12 177.97-19.31 178.41-19.68Q178.01-19.29 178.01-18.35 178.01-17.41 178.37-15.6 178.72-13.79 178.75-13.45L178.75-13.45 178.28-13.45 178.28-14.4Q177.84-13.53 177.84-12.57L177.84-12.57 177.84-12.33 178.41-11.65 178.31-12.92 178.8-12.92 178.8-12.72Q178.8-10.64 178.23-6.51 177.67-2.37 177.67 0.6 177.67 3.56 176.92 3.66L176.92 3.66 176.55 3.27 175.96 3.37 175.57 2.83 174.5 3.3 174.57 3.22 173.5 2.22 172.59 2.88 172.01 2.83 172.52 2.22Q172.52 1.71 172.66 0.68 172.79-0.34 172.79-0.88L172.79-0.88 172.35-0.59 171.91-1.12 172.3-1.12Q171.69-1.93 171.25-2.83L171.25-2.83 170.52-2.69 169.96-3.13 169.52-2.22 169.96-2.22 170.01-1.68 169.64-1.76 169.67-1.34Q169.67-0.83 169.46-0.07 169.25 0.68 168.99 0.68 168.74 0.68 168.64 0.29L168.64 0.29Q168.49 2.49 167.96 3.98L167.96 3.98 167.39 3.42 167.39 3.76Q167.39 4.15 167.13 4.35L167.13 4.35Q166.78 4.54 166 4.54L166 4.54 165.95 3.98Q165.25 4.22 164.12 4.39L164.12 4.39Q163.27 3.39 163.26 1.29 163.24-0.81 163.22-1.12L163.22-1.12 163.61-1.07 163.71-1.68Q163.27-1.81 163.06-3.6 162.85-5.4 162.8-5.57L162.8-5.57Q163.71-5.57 163.71-7.37L163.71-7.37 163.71-7.81 163.22-7.28 163.12-9.16Q163.12-10.3 163.31-12.08 163.49-13.87 163.76-14.65L163.76-14.65 163.32-14.65 164.17-17.09Q164.17-18.07 163.77-20.02 163.37-21.97 163.37-23.05 163.37-24.12 164.25-24.61L164.25-24.61Q163.39-27.37 163.37-30.59L163.37-30.59 163.76-31.18Q163.32-31.37 161.4-33.44 159.48-35.5 158.9-35.5L158.9-35.5 158.75-35.5Q158.75-36.13 164-36.71 169.25-37.28 173.01-37.28L173.01-37.28Q173.38-37.28 174.04-36.69L174.04-36.69Q175.87-37.3 179.14-37.3L179.14-37.3 183.26-37.28Q180.26-35.4 179.33-33.13L179.33-33.13Q178.53-31.2 178.53-27.95ZM169.76-11.79L169.76-11.79 169.81-11.23 169.37-11.23 169.54-9.35Q169.54-8.45 169.08-7.81L169.08-7.81 169.1-7.28 169.54-7.81 172.23-7.81 172.11-10.11 171.84-10.67 172.01-11.79Q172.01-14.06 171.42-14.06L171.42-14.06 171.84-14.65 171.42-14.65 171.79-15.14 171.37-15.14 171.33-15.75Q171.74-15.75 171.74-16.28L171.74-16.28 171.3-16.28 171.18-19.02Q171.06-18.12 170.41-15.66 169.76-13.21 169.76-11.79ZM178.36-8.86L178.36-8.86 178.14-8.96Q178.09-8.96 178.09-8.67L178.09-8.67 178.09-8.28Q178.09-8.33 178.45-8.91L178.45-8.91Q178.41-8.86 178.36-8.86ZM176.82 3.66L177.06 3.78 176.82 3.66ZM174.5 3.3L174.45 3.37Q174.45 3.3 174.5 3.3L174.5 3.3ZM188-18.6L188-18.6 187.51-23.78 186.51-23.78 186.51-24.24Q186.51-24.63 186.8-25.57 187.09-26.51 187.09-26.99 187.09-27.47 187.05-27.66L187.05-27.66 186.51-27.66 187.05-28.27 187.05-28.81Q187.05-29.64 186.44-30.47 185.82-31.3 185.09-31.84L185.09-31.84Q183.14-33.33 183.09-33.91L183.09-33.91 183.63-33.37Q186-34.5 196.03-36.52L196.03-36.52Q199.25-37.16 199.4-37.28L199.4-37.28 199.4-36.74 200.3-37.28 199.4-36.18 199.4-34.45Q199.4-34.01 199.64-33.11 199.89-32.2 199.89-31.75 199.89-31.3 199.84-31.08L199.84-31.08Q200.35-30.35 200.5-29.16 200.64-27.98 200.73-26.94 200.82-25.9 201.18-25.46L201.18-25.46 202.52-30.52 202.08-30.52 202.08-31.08 202.52-30.64Q202.96-31.2 202.96-31.91 202.96-32.62 202.91-32.76L202.91-32.76 203.82-34.45Q203.87-34.62 203.87-34.99 203.87-35.35 203.6-36.08 203.33-36.82 203.33-37.06L203.33-37.06 203.35-37.28 203.82-37.87 204.26-37.28 204.26-37.87 205.14-37.87 205.6-36.74 207.33-36.74Q207.58-37.3 208.84-37.3 210.09-37.3 212-36.93 213.9-36.55 216.33-35.91 218.76-35.28 219.86-35.06L219.86-35.06 219.37-34.45 218.42-34.45 216.93-33.37 216.93-32.76 216.29-32.76 214.95-31.08 214.95-29.39 215.17-29.39 214.46-28.27Q214.46-27.81 214.32-27.29L214.32-27.29 214.1-26.9 213.97-26.88Q213.88-27.17 213.75-27.17 213.63-27.17 213.53-27.15L213.53-27.15 213.97-25.98Q213.53-24.29 212.85-19.38L212.85-19.38Q211.14-7.18 209.53-5.05L209.53-5.05 209.78-4.52 209.12-3.96 209.53-3.37 209.12-3.37 209.12-1.12Q208.53-0.29 208.24 2.12L208.24 2.12 207.8 1.71 207.8 0 207.33-0.56 207.33 0.59 206.94 1.17Q206.8 0.85 206.63 0.37 206.45-0.12 206.37-0.32 206.28-0.51 206.09-0.73L206.09-0.73Q205.75-1.12 204.7-1.12L204.7-1.12Q204.26-0.49 204.26 0.59L204.26 0.59 203.35 0.59 203.35-0.56 202.91-0.56 204.7-14.65 204.26-14.65Q203.82-14.04 203.82-12.4L203.82-12.4 202.91-10.74 202.91-10.45Q202.91-9.01 202.52-8.45L202.52-8.45Q202.52-7.4 202.08-6.79L202.08-6.79 202.08-5.64 201.6-5.05Q201.6-4.3 201.16-2.91 200.72-1.51 200.72-1.1 200.72-0.68 200.77-0.34L200.77-0.34Q199.62-0.15 198.98 0.59L198.98 0.59 198.69 0.59 198.98 0Q198.72-0.76 198.52-3.31 198.32-5.86 197.67-6.79L197.67-6.79 197.64-7.03Q197.64-7.54 197.98-8.62L197.98-8.62Q197.81-8.89 197.18-11.8 196.54-14.72 196.32-15.38L196.32-15.38 196.32-6.79 196.79-6.79 196.79-5.64 196.32-5.64 196.79-5.05Q196.23-4.39 196.23-2.76 196.23-1.12 196.32 0L196.32 0 195.32 0 194.39-0.56 194.39-1.64 193.88-1.12 193.39-1.64 193.39-1.54Q193.39-1.39 193.3-1.23 193.2-1.07 193.14-1.07 193.08-1.07 192.98-1.17L192.98-1.17 191.9-0.56 191.9 2.83 191.42 3.42 190.46 3.42 190.46 2.29 190.39 2.29Q190.19 2.29 190.19 2 190.19 1.71 190.39 1.71L190.39 1.71 190.46 1.71 190.46-0.56 189.93-1.12 189.93-2.83 189.49-3.37 189.54-5.74Q189.56-7.25 189.02-10.22 188.49-13.18 188.49-14.65L188.49-14.65 188-14.65 188.49-15.26 188.49-15.5Q188.49-16.06 188.29-16.22 188.1-16.38 187.51-16.38L187.51-16.38Q187.85-17.63 188.49-18.07L188.49-18.07 187.51-18.07Q187.41-18.16 187.41-18.26L187.41-18.26Q187.41-18.41 187.55-18.55 187.68-18.7 187.79-18.7 187.9-18.7 188-18.6Z" fill="black"></path></g></svg></g></svg></g></svg></g></svg></g><g transform="matrix(1,0,0,1,441.4414142464974,0)"><svg viewBox="0 0 126.04270712335942 112.8573120859445" height="112.8573120859445" width="126.04270712335942"><g><svg xmlns="http://www.w3.org/2000/svg" xmlns:xlink="http://www.w3.org/1999/xlink" version="1.1" x="0" y="0" viewBox="5.421734962878724 14.522457300345891 89.54153007424256 80.17454269965411" enable-background="new 0 0 100 100" xml:space="preserve" height="112.8573120859445" width="126.04270712335942" class="icon-icon-0" data-fill-palette-color="accent" id="SvgjsSvg1018"><g fill="black"><path d="M63.313 50.225C63.819 50.225 64.234 50.622 64.262 51.121L63.274 65.653H36.986L35.998 51.121A0.95 0.95 0 0 1 36.947 50.225zM63.313 47.947H36.948A3.23 3.23 0 0 0 33.719 51.176L34.858 67.932H65.403L66.542 51.176A3.23 3.23 0 0 0 63.313 47.947" fill="black"></path><path fill-rule="evenodd" clip-rule="evenodd" d="M64.416 72.262H35.827A0.97 0.97 0 0 1 34.858 71.293V69.2H65.385V71.293A0.97 0.97 0 0 1 64.416 72.262" fill="black"></path><circle cx="50.121" cy="57.939" r="1.9" fill="black"></circle><circle cx="82.075" cy="21.12" r="6.4" fill="black"></circle><path d="M31.199 42.809L30.164 33.025A3.444 3.444 0 0 0 26.75 30.008L9.798 29.989A3.444 3.444 0 0 0 6.365 33.12C6.363 31.947 5.725 42.579 5.423 52.328 5.419 52.465 5.424 52.599 5.445 52.734 5.97 56.194 7.318 60.642 14.369 62.907 18.586 64.261 19.483 60.919 17.865 58.927 16.277 56.973 14.858 55.424 13.902 54.026 13.009 52.72 13.181 49.002 13.211 48.549 14.448 47.827 16.58 46.947 17.529 46.566 21.543 44.952 26.18 43.709 31.199 42.809" fill="black"></path><path d="M94.796 58.374A11.6 11.6 0 0 1 92.346 61.333C91.966 64.63 87.772 68.157 80.958 70.861 72.761 74.114 61.802 75.905 50.099 75.905S27.437 74.114 19.24 70.861C12.301 68.107 8.076 64.5 7.832 61.152A11.5 11.5 0 0 1 5.473 58.171C5.199 58.898 6.923 84.911 6.923 84.911H12.278L12.134 70.523C16.831 73.419 23.571 75.742 31.551 77.172L32.781 94.697H38.068L39.423 78.247C42.847 78.577 46.419 78.756 50.099 78.756 53.648 78.756 57.096 78.588 60.408 78.281L61.55 94.697H66.837L68.277 77.238C76.421 75.813 83.297 73.462 88.067 70.52L87.941 84.666H93.296C93.297 84.666 95.026 59.035 94.796 58.374" fill="black"></path><path d="M69.186 42.809L70.221 33.025A3.444 3.444 0 0 1 73.635 30.008L90.587 29.99A3.444 3.444 0 0 1 94.02 33.121C94.022 31.948 94.66 42.58 94.962 52.329 94.966 52.466 94.961 52.6 94.94 52.735 94.415 56.195 93.067 60.643 86.016 62.908 81.799 64.262 80.902 60.92 82.52 58.928 84.108 56.974 85.527 55.425 86.483 54.027 87.376 52.721 87.204 49.003 87.174 48.55 85.937 47.828 83.805 46.948 82.856 46.567 78.842 44.952 74.205 43.709 69.186 42.809" fill="black"></path><path d="M15.209 51.762A42 42 0 0 1 18.94 50.075C27.23 46.785 38.296 44.973 50.099 44.973S72.968 46.785 81.258 50.075A41 41 0 0 1 85.177 51.859V49.581C76.904 45.529 64.265 42.938 50.099 42.938 36.041 42.938 23.486 45.489 15.209 49.488z" fill="black"></path><path d="M15.768 15.02A6.2 6.2 0 0 1 17.585 14.553C20.992 14.215 24.028 16.721 24.369 20.153S22.226 26.643 18.819 26.981C16.657 27.196 14.646 26.26 13.377 24.671 11.655 26.118 9.469 30.843 6.016 24.465 10.428 28.001 10.274 16.932 15.768 15.02" fill="black"></path><path d="M42.892 31.367L31.548 25.808V23.993L42.892 17.697V20.743L35.078 24.767 42.892 28.334z" fill="black"></path><path d="M54.851 15.387L48.626 33.944H45.462L51.687 15.387z" fill="black"></path><path d="M57.842 28.333L65.656 24.766 57.842 20.742V17.696L69.186 23.992V25.807L57.842 31.366z" fill="black"></path></g></svg></g></svg></g></svg></g><defs><mask></mask></defs></svg><rect width="395.5199999999999" height="78.65827852325134" fill="black" stroke="none" visibility="hidden"></rect></g></mask></svg><rect width="395.5199999999999" height="78.65827852325134" fill="black" stroke="none" visibility="hidden"></rect></g></mask><linearGradient x1="0.054" x2="0.941" y1="0.5" y2="0.5" id="0a75fe6f-85a6-44d8-a106-c1b6c2b96ff7"><stop stop-color="#9c7945" offset="0"></stop><stop stop-color="#faf3aa" offset="0.498"></stop><stop stop-color="#9c7945" offset="1"></stop></linearGradient><rect width="395.5199999999999" height="78.65827852325134" fill="url(#0a75fe6f-85a6-44d8-a106-c1b6c2b96ff7)" mask="url(#45274407-646c-438b-b546-326196e831ba)" data-fill-palette-color="accent"></rect></svg><rect width="395.5199999999999" height="78.65827852325134" fill="none" stroke="none" visibility="hidden"></rect></g></svg></g></svg>